<svg width="101" height="40" viewBox="0 0 101 40" fill="none" xmlns="http://www.w3.org/2000/svg">
<g clip-path="url(#clip0_2199_22588)">
<path d="M80.7096 39.997C91.7506 39.997 100.701 31.0435 100.701 19.9985C100.701 8.95366 91.7506 0 80.7096 0C69.6689 0 60.7184 8.95366 60.7184 19.9985C60.7184 31.0435 69.6689 39.997 80.7096 39.997Z" fill="url(#paint0_linear_2199_22588)"/>
<path d="M17.1324 40C13.3614 40 10.1888 39.4942 7.61472 38.4859C5.0755 37.4397 3.17252 35.9979 1.90293 34.1671C0.633321 32.2984 -3.05176e-05 30.1096 -3.05176e-05 27.6045H12.7658C12.8413 28.0899 13.0824 28.5026 13.495 28.8397C13.9046 29.1768 14.4276 29.4384 15.0638 29.6244C15.735 29.8104 16.4816 29.9034 17.3038 29.9034C18.3497 29.9034 19.2068 29.7552 19.8779 29.4558C20.549 29.1187 21.0545 28.6508 21.3886 28.0521C21.7256 27.4156 21.8912 26.6861 21.8912 25.8636C21.8912 24.9278 21.7227 24.1634 21.3886 23.5647C21.0516 22.9282 20.5316 22.4603 19.8198 22.1638C19.1487 21.8267 18.309 21.6581 17.3009 21.6581C16.2928 21.6581 15.3776 21.8063 14.6687 22.1057C13.9598 22.3673 13.4369 22.7422 13.0999 23.2275H1.0633L5.03774 0.622009H32.5857V10.8872H14.6135L13.7739 15.767L13.8872 15.8803C14.8953 15.1712 16.0342 14.6102 17.3038 14.1975C18.5734 13.7849 20.1394 13.5814 22.0075 13.5814C24.5467 13.5814 26.7663 14.0667 28.6693 15.0404C30.6101 15.9762 32.1032 17.3771 33.1493 19.2459C34.2328 21.0769 34.7733 23.3206 34.7733 25.9769C34.7733 28.7816 34.1022 31.2492 32.7569 33.3822C31.4119 35.475 29.4159 37.1025 26.7663 38.2619C24.1167 39.4216 20.9064 40 17.1353 40H17.1324Z" fill="#DA2441"/>
<path d="M50.3863 3.05176e-05C61.4264 3.05176e-05 70.3775 8.95447 70.3775 19.9986C70.3775 31.0427 61.4264 39.9971 50.3863 39.9971C39.3462 39.9971 30.3951 31.0427 30.3951 19.9986C30.3951 8.95447 39.3462 3.05176e-05 50.3863 3.05176e-05Z" fill="#0F3CC9"/>
<path d="M44.5176 12.0642H43.8524C42.5885 12.0642 41.8969 12.7763 41.8969 14.2033V21.0855C41.8969 22.8584 41.2986 23.4803 39.8953 23.4803C38.7911 23.4803 37.8934 22.9979 37.1816 22.1231C37.112 22.0301 35.6652 22.7218 35.6652 24.4249C35.6652 26.2646 37.391 27.3952 40.5896 27.3952C44.4767 27.3952 46.5252 25.4392 46.5252 21.1582V14.2062C46.5252 12.7821 45.8336 12.0671 44.5206 12.0671L44.5176 12.0642ZM60.0115 15.4239C56.2375 15.4239 53.7302 17.8188 53.7302 21.3878C53.7302 24.9568 56.1445 27.3952 59.9416 27.3952C63.739 27.3952 66.1997 25.0468 66.1997 21.411C66.1997 17.8188 63.739 15.4239 60.0115 15.4239ZM59.968 24.0093C58.4947 24.0093 57.4838 22.9281 57.4838 21.3849C57.4838 19.8416 58.5211 18.7837 59.968 18.7837C61.4145 18.7837 62.4518 19.8649 62.4518 21.4081C62.4518 22.9049 61.3944 24.0093 59.968 24.0093ZM50.543 15.5373H50.0812C48.9539 15.5373 48.1027 16.0662 48.1027 17.6793V25.0439C48.1027 26.6773 48.9308 27.1859 50.1277 27.1859H50.5895C51.7168 27.1859 52.5215 26.6337 52.5215 25.0439V17.6793C52.5215 16.0227 51.7402 15.5373 50.543 15.5373ZM50.2903 10.1983C48.8639 10.1983 47.9661 11.0034 47.9661 12.2706C47.9661 13.5377 48.887 14.3631 50.3599 14.3631C51.8332 14.3631 52.6844 13.5581 52.6844 12.2706C52.6844 10.983 51.7633 10.1983 50.2903 10.1983Z" fill="white"/>
</g>
<defs>
<linearGradient id="paint0_linear_2199_22588" x1="100.704" y1="0" x2="60.7038" y2="39.9853" gradientUnits="userSpaceOnUse">
<stop offset="0.15" stop-color="#FBBE4C"/>
<stop offset="0.400817" stop-color="#FFFD8C"/>
<stop offset="0.597648" stop-color="#FDB34A"/>
<stop offset="0.7" stop-color="#BD7F2E"/>
<stop offset="0.85" stop-color="#BD7F2E"/>
</linearGradient>
<clipPath id="clip0_2199_22588">
<rect width="101" height="40" fill="white"/>
</clipPath>
</defs>
</svg>
